<svg width="38" height="39" viewBox="0 0 38 39" fill="none" xmlns="http://www.w3.org/2000/svg">
<path d="M18.9419 0.555664C8.48079 0.555664 0 9.03622 0 19.4973C0 29.9588 8.48079 38.4387 18.9419 38.4387C29.4041 38.4387 37.884 29.9588 37.884 19.4973C37.884 9.0369 29.4041 0.556569 18.9416 0.556569L18.9419 0.555664ZM27.6285 27.875C27.2892 28.4314 26.5609 28.6078 26.0044 28.2663C21.5571 25.5497 15.9584 24.9345 9.36496 26.4409C8.7296 26.5857 8.09626 26.1876 7.9515 25.552C7.80606 24.9164 8.20257 24.283 8.83952 24.1383C16.055 22.4891 22.2442 23.1996 27.2372 26.2509C27.7936 26.5925 27.97 27.3185 27.6285 27.875ZM29.9469 22.7167C29.5194 23.4122 28.6102 23.6316 27.9158 23.2041C22.8242 20.0739 15.0629 19.1675 9.04061 20.9956C8.25957 21.2315 7.43466 20.7913 7.19761 20.0117C6.96237 19.2306 7.40276 18.4073 8.18244 18.1698C15.0616 16.0825 23.6136 17.0936 29.4606 20.6866C30.155 21.1141 30.3744 22.0232 29.9469 22.7167ZM30.146 17.346C24.0411 13.72 13.9688 13.3865 8.14014 15.1556C7.20417 15.4394 6.21436 14.9111 5.93071 13.9751C5.64707 13.0387 6.175 12.0495 7.11165 11.765C13.8026 9.7338 24.9255 10.1262 31.9542 14.2988C32.7978 14.7984 33.0738 15.8857 32.5739 16.7265C32.0763 17.5684 30.9861 17.8459 30.1469 17.346H30.146Z" fill="#1ED760"/>
</svg>
