<svg width="48" height="49" viewBox="0 0 48 49" fill="none" xmlns="http://www.w3.org/2000/svg">
<path fill-rule="evenodd" clip-rule="evenodd" d="M14 8.88867H9V15.8887H14V21.8887H7V28.8887H14V43.8887H21V28.8887H33.0312C33.9561 28.8887 34 28.962 34 29.8887V35.8887C34 36.8154 33.9561 36.8887 33.0312 36.8887H26C26 40.7547 29.1653 43.8887 33.0312 43.8887C38 43.8887 41 41.8887 41 36.8887V29.8887C41 24.8887 37 21.8887 32 21.8887V16.8887C32 11.6374 28.2409 8.88867 23 8.88867H22C21.4477 8.88867 21 8.44096 21 7.88867V5.88867H14V8.88867ZM24 21.8887C24.5523 21.8887 25 21.441 25 20.8887V16.8887C25 15.962 24.6711 15.8887 24 15.8887H21V20.8887C21 21.441 21.4477 21.8887 22 21.8887H24Z" fill="#FF5959"/>
<path d="M41 11.3887C41 13.3217 39.433 14.8887 37.5 14.8887C36.5207 14.8887 34 14.8887 34 14.8887C34 14.8887 34 12.3423 34 11.3887C34 9.45568 35.567 7.88867 37.5 7.88867C39.433 7.88867 41 9.45568 41 11.3887Z" fill="#FF5959"/>
</svg>
