<svg width="40" height="41" viewBox="0 0 40 41" fill="none" xmlns="http://www.w3.org/2000/svg">
<rect y="0.665771" width="40" height="40" rx="20" fill="#20C300"/>
<path fill-rule="evenodd" clip-rule="evenodd" d="M25.76 16.5594C24.7756 16.6691 23.8114 16.7012 22.8815 16.8959C20.7212 17.351 18.9447 18.4496 17.702 20.3083C16.6242 21.92 16.4036 23.6814 16.888 25.544C16.9144 25.6452 16.9454 25.7471 16.9938 25.9209C16.411 25.886 15.8585 25.8911 15.3202 25.8112C14.6372 25.7088 13.9661 25.531 13.2865 25.4022C13.156 25.378 12.9918 25.3966 12.8747 25.4585C12.0422 25.8894 11.218 26.3366 10.3905 26.7782C10.2791 26.8373 10.1644 26.8913 9.98772 26.9779C10.0305 26.8165 10.0519 26.7096 10.0867 26.6067C10.3157 25.9186 10.5373 25.229 10.7837 24.5488C10.8597 24.3367 10.8186 24.2355 10.6375 24.1072C9.17427 23.0665 8.03566 21.7546 7.52036 20.009C6.6439 17.0404 7.53443 14.5449 9.76608 12.5265C11.9235 10.5761 14.5365 9.86843 17.4056 10.0755C19.5472 10.229 21.4824 10.9536 23.1374 12.3409C24.4037 13.4024 25.2926 14.7205 25.7111 16.3361C25.7297 16.4076 25.7471 16.4801 25.7589 16.5538C25.764 16.5803 25.7471 16.6112 25.76 16.5594ZM21.052 15.2116C21.0745 14.5072 20.5002 13.8974 19.7902 13.8687C19.0448 13.8412 18.4688 14.3874 18.4474 15.1457C18.4272 15.8602 18.9717 16.4644 19.6569 16.4908C20.3983 16.5178 21.0295 15.9389 21.052 15.2116ZM14.6254 15.1806C14.6322 14.4915 14.0212 13.8766 13.3209 13.8665C12.5862 13.8564 12.0185 14.4313 12.0124 15.1913C12.0067 15.8923 12.5918 16.4891 13.2837 16.488C14.0229 16.4857 14.6187 15.9058 14.6254 15.1806Z" fill="white"/>
<path fill-rule="evenodd" clip-rule="evenodd" d="M30.4011 31.2398C30.1603 31.1104 29.9207 30.9782 29.6793 30.8511C29.1624 30.5788 28.6651 30.2447 28.1188 30.0523C27.5444 29.8503 26.9898 30.2238 26.4188 30.3026C23.8412 30.6542 21.4846 30.1552 19.4566 28.4833C16.3519 25.9231 16.3553 21.6483 19.4532 19.0791C21.2388 17.5979 23.3275 17.0269 25.6205 17.1782C27.4466 17.2992 29.1016 17.8966 30.5069 19.0898C33.579 21.6983 33.579 25.8393 30.5187 28.4597C30.5035 28.4737 30.486 28.4872 30.4692 28.5002C30.2464 28.6937 29.8987 28.8529 29.8352 29.0892C29.7699 29.3299 29.9826 29.6461 30.0726 29.9296C30.2048 30.3504 30.3381 30.7712 30.4703 31.1931C30.4461 31.2089 30.4236 31.2241 30.4011 31.2398ZM23.6448 21.659C23.6448 21.1094 23.1256 20.5929 22.5732 20.5929C21.9943 20.5929 21.5358 21.0722 21.5403 21.6719C21.5448 22.2311 22.0022 22.6896 22.5608 22.6935C23.1548 22.698 23.6448 22.23 23.6448 21.659ZM28.8057 21.6674C28.8034 21.1026 28.305 20.5963 27.752 20.5963C27.2227 20.5963 26.6657 21.115 26.6601 21.614C26.6539 22.1765 27.1855 22.7019 27.752 22.6929C28.3303 22.6839 28.8068 22.2204 28.8057 21.6674Z" fill="white"/>
</svg>
