<svg width="39" height="40" viewBox="0 0 39 40" fill="none" xmlns="http://www.w3.org/2000/svg">
<path d="M36.121 0.555664H2.87896C2.11541 0.555664 1.38314 0.858982 0.843228 1.39889C0.303318 1.9388 0 2.67108 0 3.43462V36.6767C0 37.4403 0.303318 38.1725 0.843228 38.7124C1.38314 39.2523 2.11541 39.5557 2.87896 39.5557H36.121C36.8846 39.5557 37.6169 39.2523 38.1568 38.7124C38.6967 38.1725 39 37.4403 39 36.6767V3.43462C39 2.67108 38.6967 1.9388 38.1568 1.39889C37.6169 0.858982 36.8846 0.555664 36.121 0.555664ZM11.6242 33.7788H5.76063V15.1536H11.6242V33.7788ZM8.68833 12.5725C8.02322 12.5688 7.37411 12.3681 6.82294 11.9958C6.27177 11.6235 5.84324 11.0963 5.59143 10.4807C5.33961 9.86504 5.2758 9.18863 5.40805 8.53678C5.5403 7.88493 5.86268 7.28686 6.3345 6.81806C6.80633 6.34925 7.40645 6.03072 8.05913 5.90266C8.71182 5.7746 9.38781 5.84275 10.0018 6.09852C10.6158 6.35428 11.1403 6.78619 11.509 7.33973C11.8778 7.89328 12.0743 8.54366 12.0738 9.20879C12.08 9.65409 11.9966 10.0961 11.8284 10.5085C11.6602 10.9208 11.4107 11.2951 11.0948 11.609C10.7789 11.9229 10.403 12.17 9.98956 12.3355C9.57612 12.5011 9.13359 12.5817 8.68833 12.5725ZM33.2367 33.795H27.3758V23.6198C27.3758 20.619 26.1002 19.6927 24.4535 19.6927C22.7148 19.6927 21.0085 21.0036 21.0085 23.6957V33.795H15.145V15.1671H20.7838V17.7482H20.8596C21.4256 16.6025 23.4081 14.6444 26.4333 14.6444C29.705 14.6444 33.2394 16.5863 33.2394 22.2738L33.2367 33.795Z" fill="#0A66C2"/>
</svg>
